<svg width="54" height="57" viewBox="0 0 54 57" fill="none" xmlns="http://www.w3.org/2000/svg">
<path d="M4.5015 32.1358C4.03159 32.1358 3.71006 31.7648 3.70182 31.2125C3.68533 29.2751 3.68533 27.4779 3.70182 25.7136C3.71006 25.153 4.0151 24.8068 4.5015 24.8068H4.51799C5.17752 24.815 5.2847 25.4003 5.2847 25.7466C5.29294 26.3814 5.29294 27.0244 5.29294 27.6427C5.29294 27.9066 5.29294 28.1704 5.29294 28.4342C5.29294 28.7062 5.29294 28.9865 5.29294 29.2586C5.29294 29.8934 5.29294 30.5447 5.2847 31.1795C5.27645 31.7731 4.99615 32.1193 4.50974 32.1193H4.5015V32.1358Z" fill="black"/>
<path d="M4.5015 18.6812C4.00685 18.6812 3.71006 18.3267 3.70182 17.7331C3.68533 16.0266 3.68533 14.2624 3.70182 12.3415C3.71006 11.7314 4.0151 11.3522 4.5015 11.3439C4.98791 11.3439 5.28469 11.7149 5.29294 12.3332C5.30118 12.9515 5.30118 13.5781 5.29294 14.1882C5.29294 14.4685 5.29294 14.7488 5.29294 15.0291C5.29294 15.2929 5.29294 15.5567 5.29294 15.8205C5.29294 16.4471 5.29294 17.0901 5.2847 17.7249C5.27645 18.1453 5.14454 18.6565 4.52623 18.6812H4.5015Z" fill="black"/>
<path d="M39.0845 24.0976C38.6971 24.0976 38.6229 24.0729 38.6146 23.2155C38.6146 22.9847 38.6064 22.7538 38.5734 22.5312L38.458 21.781L37.8232 22.2015C37.6748 22.3004 37.5346 22.3911 37.4027 22.4818C37.1307 22.6631 36.8751 22.8363 36.6195 23.0012C36.4547 23.1083 36.2898 23.166 36.1579 23.166C36.0177 23.166 35.9023 23.1001 35.8116 22.9599C35.7374 22.8363 35.5725 22.5807 36.0837 22.2344C36.3805 22.0283 36.6772 21.8305 36.974 21.6326C37.3285 21.3935 37.6913 21.1545 38.0458 20.9154C38.4085 20.6598 38.5899 20.4042 38.5981 20.1322C38.6229 19.2088 38.6146 18.2773 38.6146 17.288V15.1939L35.5725 18.2443C35.3087 18.5081 35.0532 18.7719 34.7811 19.0275C34.575 19.2253 34.3771 19.3408 34.2205 19.3408C34.1298 19.3408 34.0391 19.2913 33.9484 19.2006C33.866 19.1182 33.6269 18.8626 34.1381 18.3515C34.6739 17.8156 35.2098 17.2715 35.7457 16.7356C36.0424 16.4388 36.3392 16.142 36.636 15.8452C36.7185 15.7628 36.7927 15.6804 36.8834 15.5732C36.9328 15.5155 36.9988 15.4413 37.073 15.3671L37.8149 14.5509C37.8149 14.5509 35.284 14.5509 35.0119 14.5509C34.4266 14.5509 33.7341 14.5509 33.0251 14.5674C32.6706 14.5756 32.4233 14.8642 32.2419 15.1198C31.9946 15.4743 31.7555 15.837 31.5164 16.1915C31.3186 16.4883 31.1207 16.7851 30.9146 17.0819C30.8239 17.2138 30.6425 17.4364 30.4364 17.4364C30.3622 17.4364 30.2798 17.4034 30.1891 17.3539C29.8593 17.1478 29.983 16.8016 30.1479 16.546C30.2221 16.4223 30.3045 16.3069 30.387 16.1832L30.5106 15.9936C30.6096 15.837 31.1289 15.0456 31.1289 15.0456L31.4587 14.5427H30.5601C30.4282 14.5427 30.3045 14.5427 30.1891 14.5427C30.0737 14.5427 29.9748 14.5427 29.8841 14.5427C29.7769 14.5427 29.678 14.5427 29.579 14.5344C29.4389 14.5262 29.002 14.4767 29.002 14.0727C29.002 13.7595 29.2823 13.6193 29.5461 13.6028C29.6368 13.5946 29.7357 13.5946 29.8593 13.5946C29.95 13.5946 30.0325 13.5946 30.1314 13.5946H30.1479C30.2715 13.5946 30.4035 13.6028 30.5436 13.6028H31.4422C31.4422 13.6028 30.7662 12.5723 30.6838 12.4487C30.5024 12.1684 30.3293 11.9128 30.1644 11.649C30.0325 11.4429 29.9748 11.245 30.0077 11.1049C30.0325 11.0059 30.0984 10.9152 30.2138 10.8493C30.2963 10.7998 30.3705 10.7751 30.4447 10.7751C30.659 10.7751 30.8486 10.9977 30.9393 11.1378C31.1207 11.4099 31.3021 11.6819 31.4834 11.954C31.7225 12.3167 31.9698 12.6877 32.2254 13.0587C32.3161 13.1824 32.6376 13.5863 33.0663 13.5946C33.7258 13.6111 34.3854 13.6111 34.8883 13.6111C35.1438 13.6111 35.7539 13.6111 35.7539 13.6111C36.0589 13.6111 36.3722 13.6111 36.6937 13.6111H37.8314L37.04 12.7867C36.9411 12.6877 36.8586 12.597 36.7927 12.5228C36.6855 12.4074 36.5948 12.3167 36.5041 12.2261C36.2238 11.9458 35.9353 11.6572 35.655 11.3769C35.1356 10.8658 34.608 10.3299 34.0803 9.80228C33.6516 9.36534 33.8825 9.11802 33.9649 9.03558C34.0639 8.9284 34.1628 8.87894 34.2617 8.87894C34.4019 8.87894 34.575 8.97787 34.7564 9.15099C35.2757 9.66213 35.7951 10.1815 36.3063 10.6926L36.3228 10.7091C36.636 11.0224 36.9493 11.3357 37.2626 11.649C37.3533 11.7397 37.4522 11.8303 37.5759 11.9375C37.6418 11.9952 37.6995 12.0447 37.7737 12.1106L38.5899 12.8444V11.7479C38.5899 11.4264 38.5899 11.1213 38.5899 10.8081C38.5899 9.85999 38.5981 8.97787 38.5734 8.0875C38.5569 7.67529 38.1859 7.36201 38.021 7.25484C37.6583 6.99927 37.2873 6.75195 36.9328 6.51287C36.6525 6.3315 36.3805 6.14188 36.1084 5.96051C35.9188 5.8286 35.6385 5.56479 35.8528 5.22678C35.9435 5.08663 36.0507 5.02068 36.1908 5.02068C36.3145 5.02068 36.4711 5.07014 36.6195 5.16907C36.8751 5.32571 37.1307 5.49884 37.4192 5.68845C37.5511 5.77914 37.6913 5.86982 37.8479 5.96875L38.5981 6.4634V5.56479C38.5981 5.42464 38.5981 5.30098 38.5981 5.17732C38.5981 4.94648 38.5899 4.74862 38.6064 4.55901C38.6146 4.36115 38.6971 4.02314 39.0598 4.01489H39.0763C39.3236 4.01489 39.505 4.221 39.538 4.54252C39.5545 4.71565 39.5545 4.9135 39.5462 5.14434C39.5462 5.268 39.538 5.40815 39.538 5.5483V6.44692C39.538 6.44692 40.5932 5.75441 40.7334 5.66372C41.0054 5.48235 41.2527 5.32571 41.4918 5.16907C41.6567 5.0619 41.8133 5.01243 41.937 5.01243C42.0277 5.01243 42.1514 5.03717 42.2668 5.21029C42.341 5.31747 42.3657 5.4164 42.3492 5.51533C42.3245 5.66372 42.1926 5.82036 41.9865 5.96051C41.7721 6.1089 41.5578 6.24906 41.3352 6.38921C40.9312 6.65302 40.5025 6.93332 40.1068 7.23835C39.7935 7.47743 39.5627 7.89788 39.5462 8.26887C39.505 9.51373 39.538 10.602 39.6616 11.6902L39.777 12.696L42.8109 9.6374C42.8604 9.57969 42.9181 9.53022 42.9675 9.47251C43.1077 9.33236 43.2478 9.18397 43.388 9.06031C43.5364 8.9284 43.693 8.8542 43.8167 8.8542C43.9238 8.8542 44.0228 8.90367 44.1217 9.0026C44.3361 9.21695 44.3113 9.45603 44.0558 9.71984C43.5116 10.2722 42.951 10.8328 42.4069 11.3769L42.3904 11.3934C42.1019 11.6819 41.8051 11.9787 41.5166 12.2673C41.4259 12.358 41.3434 12.4487 41.228 12.5723C41.1703 12.6383 41.1126 12.7042 41.0466 12.7702L40.2964 13.5863C40.2964 13.5863 42.8933 13.5863 43.1736 13.5863C43.7425 13.5863 44.4103 13.5863 45.1028 13.5699C45.449 13.5616 45.7211 13.2731 45.8942 13.034C46.1415 12.6795 46.3806 12.3167 46.6197 11.9622C46.8093 11.6737 46.9989 11.3934 47.1885 11.1213C47.2957 10.9647 47.4688 10.7668 47.6749 10.7668C47.7491 10.7668 47.8316 10.7916 47.914 10.8493C48.0294 10.9235 48.0954 11.0059 48.1201 11.1049C48.1531 11.245 48.0954 11.4429 47.9635 11.6572C47.7986 11.9128 47.6337 12.1684 47.4359 12.4569L46.6774 13.5946H47.5842C47.7162 13.5946 47.8398 13.5946 47.9552 13.5946C48.0542 13.5946 48.1366 13.5946 48.2273 13.5946C48.3345 13.5946 48.4334 13.5946 48.5241 13.6028C48.6725 13.6111 49.1506 13.677 49.1259 14.0975C49.1177 14.3778 48.9116 14.5344 48.5158 14.5509C48.4169 14.5509 48.3262 14.5592 48.2273 14.5592C48.1448 14.5592 48.0542 14.5592 47.9635 14.5592C47.8481 14.5592 47.7326 14.5592 47.5925 14.5592H46.7351L47.2215 15.3094C47.3946 15.5732 47.543 15.804 47.6832 16.0266L47.9635 16.4635C48.3839 17.1066 48.0789 17.3127 47.9717 17.3786C47.8893 17.4281 47.8151 17.4611 47.7409 17.4611C47.576 17.4611 47.3781 17.2962 47.1885 17.0159C47.0319 16.7851 46.8752 16.5542 46.7186 16.3152C46.4466 15.9029 46.1745 15.4907 45.8942 15.095C45.8118 14.9796 45.5067 14.5921 45.0863 14.5839C44.4515 14.5674 43.8167 14.5674 43.3385 14.5674C43.0747 14.5674 42.8026 14.5674 42.5388 14.5674H41.9782C41.7721 14.5674 41.533 14.5921 41.2033 14.79L40.6344 15.128L41.1291 15.5732C41.2115 15.6474 41.294 15.7216 41.3847 15.7958C41.5578 15.9442 41.7309 16.0926 41.8875 16.2492C42.6378 16.9912 43.388 17.7414 43.9568 18.3102C44.1959 18.5493 44.3361 18.7884 44.3361 18.9615C44.3361 19.0522 44.2866 19.1429 44.1959 19.2336C44.0722 19.349 43.9816 19.3655 43.9321 19.3655C43.7672 19.3655 43.5529 19.2336 43.3138 19.0027C42.7037 18.3927 42.1019 17.7826 41.4753 17.1561L39.777 15.4495L39.6451 16.4223C39.6369 16.4965 39.6286 16.5542 39.6122 16.6119C39.5957 16.7356 39.5709 16.8428 39.5709 16.9747C39.5709 17.3045 39.5709 17.6425 39.5709 17.9805V18.0134C39.5709 18.6153 39.5709 19.2336 39.5627 19.8354C39.5545 20.3548 39.7523 20.7258 40.181 20.9896C40.7911 21.3688 41.3847 21.7728 42.0772 22.2509C42.3245 22.4241 42.5636 22.6961 42.341 23.0259C42.2585 23.1495 42.1596 23.199 42.0195 23.199C41.8875 23.199 41.7227 23.1413 41.5578 23.0424C41.2857 22.8692 41.0137 22.6879 40.7251 22.4983L39.7276 21.847L39.6122 22.5889C39.5792 22.8115 39.5709 23.0341 39.5627 23.2567C39.5545 24.0646 39.472 24.0976 39.0845 24.0976Z" fill="black"/>
<path d="M22.2839 56.9835C22.2345 56.9505 22.1767 56.9176 22.0943 56.8928C20.9236 56.5218 20.3053 55.7469 20.1899 54.535C20.1817 54.4526 20.1734 54.3701 20.1734 54.2877C20.1652 54.1063 20.1569 53.9332 20.1487 53.76V53.7353C20.1487 53.6529 20.1404 53.5622 20.1404 53.4798L20.124 53.1912H10.0496L10.0249 53.4633C10.0166 53.5539 10.0084 53.6364 10.0001 53.7271C10.0001 53.7271 9.98366 53.9249 9.97541 54.0074C9.96717 54.1063 9.95892 54.197 9.95068 54.2959C9.94243 54.3866 9.93419 54.469 9.92595 54.5515C9.90121 54.7823 9.87648 54.9637 9.82702 55.1286C9.77755 55.3182 9.7116 55.4831 9.62916 55.6562C9.60442 55.7057 9.57969 55.7469 9.54672 55.7964C9.51374 55.8541 9.48076 55.9035 9.43954 55.953C9.42305 55.9777 9.40657 55.9942 9.39008 56.0189C9.34061 56.0767 9.2829 56.1426 9.21695 56.2086C9.17573 56.2498 9.13451 56.2828 9.09329 56.3157L9.06856 56.3322C9.06031 56.3405 9.03558 56.357 9.01085 56.3734L9.0026 56.3817L8.98611 56.3982C8.96963 56.4147 8.96138 56.4229 8.94489 56.4312L8.9284 56.4476C8.91192 56.4641 8.89543 56.4724 8.87894 56.4806L8.86245 56.4971C8.83772 56.5136 8.82123 56.5301 8.7965 56.5383L8.77177 56.5548C8.75528 56.5713 8.73055 56.5795 8.71406 56.5878L8.68933 56.6043C8.66459 56.6208 8.6481 56.629 8.63161 56.6373L8.60688 56.6455L8.59864 56.6537C8.57391 56.6702 8.56566 56.6785 8.54917 56.6785H8.56566C8.54093 56.695 8.5162 56.7032 8.49971 56.7115L8.47498 56.7197C8.43376 56.7444 8.40903 56.7527 8.37605 56.7692C8.28536 56.8104 8.20292 56.8434 8.12872 56.8763C8.07926 56.9011 8.03804 56.9093 7.99682 56.9258C7.94735 56.9423 7.89789 56.9588 7.85667 56.9753H5.92754C5.25976 56.7362 4.78985 56.4476 4.46008 56.0767C4.40237 56.0107 4.35291 55.9447 4.30344 55.8788C4.26222 55.8128 4.21276 55.7386 4.17154 55.6644C4.1468 55.615 4.12207 55.5655 4.09734 55.5078C4.05612 55.4089 4.0149 55.2935 3.98192 55.1533C3.93245 54.9637 3.89948 54.7411 3.87475 54.4855C3.85826 54.2465 3.85001 54.0074 3.84177 53.7765C3.84177 53.6776 3.83353 53.5704 3.80055 53.4633C3.79231 53.4303 3.77582 53.3808 3.75933 53.3396C3.71811 53.2572 3.67689 53.1994 3.62742 53.15C3.54498 53.0593 3.42132 52.9933 3.25644 52.9356C2.47324 52.6718 1.81371 52.2843 1.30257 51.7815C0.445183 50.9406 0.00824464 49.8193 0.00824464 48.4426L0 38.698C0 28.3846 5.0306e-07 18.8214 0.00824464 9.46427C0.00824464 6.66951 1.89615 4.78985 4.70741 4.77336C7.57637 4.75687 10.6102 4.74863 13.7183 4.74863C17.3869 4.74863 21.2287 4.75687 25.4579 4.7816C25.9773 4.7816 26.4967 4.89702 27.049 5.01244C27.3211 5.07015 27.5931 5.12786 27.8734 5.17732L28.0466 5.2103L28.162 5.07839C30.9073 1.80547 34.7408 0 38.9701 0C42.4326 0 45.755 1.22013 48.3189 3.44605C48.6075 3.70162 48.896 3.96543 49.1681 4.24573C52.3421 7.49393 53.7353 12.1189 52.9027 16.6284L52.8862 16.7274L52.8779 16.7521C52.8614 16.8345 52.845 16.9252 52.8285 17.0159C52.8037 17.1396 52.7708 17.2715 52.746 17.3951C52.7295 17.4693 52.713 17.5353 52.6883 17.6095C52.6883 17.6095 52.6553 17.7249 52.6471 17.7826L52.6306 17.8403C52.6141 17.9145 52.5894 17.9887 52.5729 18.0629C52.5317 18.2113 52.4822 18.3597 52.4327 18.5081C52.408 18.5905 52.375 18.6812 52.3421 18.7637C52.3008 18.8873 52.2596 19.0027 52.2102 19.1264L52.1524 19.2748C52.0865 19.4397 52.0205 19.6046 51.9463 19.7777C51.8969 19.8849 51.8557 19.992 51.8062 20.091C51.7567 20.1899 51.7155 20.2888 51.666 20.3878C51.6413 20.429 51.6248 20.4702 51.6083 20.5114L51.5836 20.5526L51.5424 20.6351L51.5012 20.734C51.5012 20.7423 51.4929 20.7423 51.4929 20.7505C51.4434 20.8494 51.394 20.9401 51.3445 21.0226C51.1219 21.4265 50.8664 21.8305 50.6025 22.218C48.0634 25.9113 43.628 28.2115 39.0278 28.2115C36.0104 28.2115 33.1085 27.2469 30.6187 25.4167L30.1406 25.0622V32.9848C30.1406 38.1127 30.1406 43.2323 30.1406 48.3601C30.1406 48.8053 30.0994 49.2258 30.0252 49.6132C30.0004 49.7204 29.9757 49.8276 29.951 49.9348C29.9262 50.0337 29.8933 50.1409 29.8603 50.248C29.8438 50.2975 29.8273 50.347 29.8026 50.3964L29.7778 50.4459C29.7449 50.5283 29.7119 50.6108 29.6707 50.685L29.6377 50.7427C29.6047 50.8169 29.5635 50.8911 29.5223 50.957C29.3656 51.2373 29.176 51.4847 28.9699 51.7073C28.8957 51.7815 28.8133 51.8557 28.7391 51.9299C28.4093 52.2184 28.0218 52.4575 27.5849 52.6471C26.5791 53.084 26.2411 53.6034 26.2411 54.6834C26.2411 55.9035 25.359 56.5136 24.6252 56.8186C24.5098 56.8681 24.4027 56.9093 24.2872 56.9505L24.1636 57H22.2839V56.9835ZM5.16083 53.4962C5.16908 53.6199 5.16083 53.7518 5.16083 53.8755C5.14435 54.4361 5.12786 55.0709 5.81212 55.4831C6.04296 55.6232 6.41394 55.6974 6.85912 55.6974C7.07347 55.6974 7.81545 55.6727 8.16994 55.3677C8.71406 54.906 8.68108 54.3207 8.6481 53.8507C8.63986 53.7271 8.63162 53.6117 8.63986 53.4962L8.6481 53.1912H5.15259L5.16083 53.4962ZM21.5584 53.4303C21.3771 54.469 21.5419 55.1121 22.0943 55.4501C22.3334 55.5985 22.7456 55.6892 23.232 55.6892C23.4876 55.6892 24.1059 55.6644 24.4439 55.4089C25.0457 54.9554 25.0045 54.3536 24.9797 53.8755C24.9715 53.7436 24.9633 53.6199 24.9715 53.4962L24.9797 53.183H21.6079L21.5584 53.4303ZM1.36853 22.6549C1.36028 22.7044 1.35204 22.7456 1.34379 22.7703C1.32731 22.8363 1.31906 22.894 1.31906 22.9599C1.31906 25.021 1.31906 27.0738 1.31906 29.1348C1.31906 35.491 1.31082 42.0699 1.32731 48.558C1.32731 50.5036 2.68759 51.8062 4.69916 51.8062H25.4579C27.4612 51.8062 28.8133 50.4789 28.8133 48.5003C28.8215 41.9709 28.8215 35.3261 28.8215 28.8957V24.2543C28.8215 23.3721 27.8405 22.4076 26.9501 22.4076H1.41799L1.36853 22.6549ZM39.1597 26.8017C39.2256 26.8017 39.2833 26.8017 39.3493 26.8017C46.0353 26.8017 51.7732 21.0473 51.8721 14.2459C51.9793 7.21362 46.3238 1.4015 39.2751 1.28609C39.2009 1.28609 39.1349 1.28609 39.069 1.28609C32.0615 1.27784 26.3483 7.00752 26.3235 14.0563C26.3153 17.4611 27.6261 20.6516 30.0169 23.0506C32.4242 25.4662 35.6559 26.8017 39.1102 26.8017H39.1597ZM15.0785 6.08418C11.6737 6.08418 8.26888 6.08418 4.87229 6.08418C4.5013 6.08418 4.08085 6.09242 3.68513 6.1996C2.20943 6.58707 1.31906 7.81545 1.31906 9.48901C1.31082 12.3827 1.31082 15.2846 1.31906 18.0959V20.2888C1.31906 20.396 1.32731 20.5032 1.33555 20.6186C1.34379 20.6681 1.34379 20.7258 1.35204 20.7752L1.36853 21.0555H26.7605L26.5544 20.6186C24.2872 15.8782 24.4439 11.311 27.0325 6.66127L27.2551 6.2573L26.7935 6.21608C26.6121 6.19959 26.4472 6.18311 26.2906 6.15838C25.9443 6.11715 25.6145 6.08418 25.2848 6.08418C21.8882 6.08418 18.4834 6.08418 15.0785 6.08418Z" fill="black"/>
</svg>
