<svg width="35" height="53" viewBox="0 0 35 53" fill="none" xmlns="http://www.w3.org/2000/svg">
<path d="M2.53035 52.0366C0.947928 52.0366 0.00764504 51.104 0.00764504 49.5368V35.1956C0.00764504 24.3021 0.00764458 13.4009 0 2.50742C0 1.269 0.573345 0.473964 1.81941 0H32.2372C33.2539 0.389873 33.812 0.970861 33.9878 1.82705C34.0336 2.06403 34.0413 2.31631 34.0413 2.50742C34.0413 18.1864 34.0413 33.8578 34.0413 49.5368C34.0413 51.104 33.0934 52.0366 31.5109 52.0366C26.6796 52.0366 21.8482 52.0366 17.0168 52.0366C12.1855 52.0366 7.36173 52.0366 2.53035 52.0366ZM16.0689 50.7218H31.3963C32.4206 50.7218 32.7341 50.4083 32.7341 49.3916V32.4512H30.7771V33.0551C30.7771 33.338 30.7771 33.6056 30.7771 33.8731C30.7771 34.6911 30.6012 34.8669 29.7833 34.8669H16.0689V50.7218ZM1.32251 49.384C1.32251 50.4083 1.63594 50.7218 2.65267 50.7218H14.6852V34.8593H9.05118C7.42288 34.8593 5.79459 34.8593 4.16629 34.8593C3.48593 34.8593 3.27952 34.6529 3.27188 33.9725C3.27188 33.6744 3.27188 33.3686 3.27188 33.0628V32.4283H1.31487V49.384H1.32251ZM16.0689 33.5138H29.4316V32.4436H16.0689V33.5138ZM4.62497 33.5138H14.6852V32.4359H4.62497V33.5138ZM16.0842 31.0599H32.7264V2.62209C32.7264 1.63594 32.4054 1.32251 31.4116 1.32251H16.0842V31.0599ZM2.66031 1.32251C1.63594 1.32251 1.32251 1.63594 1.32251 2.65267V31.0599H14.7082V1.32251H2.66031Z" fill="black"/>
<path d="M4.18883 29.1335C3.47024 29.1335 3.27148 28.9347 3.27148 28.2161C3.27148 24.0269 3.27148 19.83 3.27148 15.6408C3.27148 14.9222 3.47024 14.7311 4.18883 14.7311C5.46548 14.7311 6.74212 14.7311 8.02641 14.7311C9.30305 14.7311 10.5797 14.7311 11.864 14.7311C12.5826 14.7311 12.7813 14.9298 12.7813 15.6484C12.7813 17.743 12.7813 19.8377 12.7813 21.9399C12.7813 24.0345 12.7813 26.1291 12.7813 28.2314C12.7813 28.95 12.5826 29.1488 11.864 29.1488C10.5873 29.1488 9.3107 29.1488 8.02641 29.1488C6.74976 29.1335 5.46548 29.1335 4.18883 29.1335ZM4.62457 27.7804H11.4359V20.1664H10.3274V20.7779C10.3274 21.1143 10.3274 21.443 10.3274 21.7717C10.3198 22.3527 10.0904 22.5821 9.5171 22.5821C9.0202 22.5897 8.53095 22.5897 8.03405 22.5897C7.53716 22.5897 7.0479 22.5897 6.55101 22.5821C5.97002 22.5744 5.74833 22.3604 5.74068 21.7717C5.73304 21.4507 5.74068 21.1219 5.74068 20.8009C5.74068 20.6403 5.74068 20.1587 5.74068 20.1587H4.63222V27.7804H4.62457ZM7.08613 21.2366H8.98198V20.1664H7.08613V21.2366ZM4.63986 18.7903H11.4359V16.0842H4.63986V18.7903Z" fill="black"/>
</svg>
