<svg width="38" height="44" viewBox="0 0 38 44" fill="none" xmlns="http://www.w3.org/2000/svg">
<path d="M8.99887 44C7.68259 44 6.36631 44 5.05003 44C2.4949 44 0.490377 42.3374 0.0602203 39.8519C-1.57425e-06 39.5211 0 39.1733 0 38.834V5.15751C0 2.46 1.53996 0.610759 4.21553 0.0678635C4.26715 0.0593808 4.31016 0.0254482 4.33597 0H33.6812C34.5243 0.203586 35.4019 0.466551 36.1245 1.06034C37.3117 2.01889 37.9226 3.20648 37.9914 4.68248C37.9914 4.72489 37.9914 4.7673 38 4.80972C38 4.85213 38 4.89454 38 4.92848C38 16.1087 38 27.6622 37.9828 39.0461C37.9828 40.9123 37.1397 42.3628 35.4793 43.3468C34.7394 43.7879 33.8791 44 32.8467 44H16.8965C15.5803 44 14.264 44 12.9477 44C11.6314 44 10.3151 44 8.99887 44ZM1.24745 39.7501C1.25606 39.8095 1.26466 39.8604 1.27326 39.9113C1.28186 39.9707 1.29047 40.0301 1.30767 40.0895C1.72923 41.7436 3.26058 42.8463 5.11886 42.8463C8.50849 42.8463 11.8981 42.8548 15.2878 42.8548C21.7573 42.8548 27.53 42.8463 32.9328 42.8294C33.5436 42.8294 34.249 42.6682 34.8513 42.3798C35.9094 41.8878 36.5633 41.0056 36.8128 39.7586L36.83 39.6568H36.202C35.6858 39.6568 35.1696 39.6568 34.6534 39.6568C34.1372 39.6568 33.621 39.6568 33.1134 39.6568C32.5972 39.6568 32.0811 39.6568 31.5649 39.6568C31.2896 39.6568 31.0745 39.589 30.954 39.4702C30.8594 39.3769 30.8078 39.2412 30.8164 39.08C30.825 38.7237 31.0745 38.5456 31.5563 38.5456H36.8472V11.545H1.17863V38.5201H28.2785C28.3215 38.5201 28.3645 38.5201 28.3989 38.5201C28.4419 38.5201 28.4763 38.5201 28.5194 38.5201C28.614 38.5201 28.6828 38.5201 28.7516 38.5286C29.0958 38.5626 29.2764 38.7407 29.2936 39.063C29.3108 39.3684 29.1302 39.572 28.8033 39.6399C28.7 39.6568 28.5968 39.6568 28.5022 39.6568C28.4677 39.6568 28.3301 39.6568 28.2957 39.6568H1.23025L1.24745 39.7501ZM5.21349 1.11972C2.753 1.11972 1.15282 2.68055 1.14421 5.10661C1.13561 6.16696 1.14421 7.25275 1.14421 8.29613C1.14421 8.83054 1.14421 9.35647 1.14421 9.89088C1.14421 10.0012 1.15282 10.1114 1.16142 10.2387L1.17003 10.3829H36.8472L36.8558 10.2387C36.8644 10.1114 36.873 10.0012 36.873 9.89088C36.873 9.0935 36.873 8.29613 36.873 7.49875C36.873 6.70137 36.8816 5.90399 36.8816 5.10661C36.873 2.68055 35.2728 1.11972 32.8123 1.11972H5.21349Z" fill="black"/>
<path d="M19.0152 37C16.3528 37 13.7422 36.1114 11.6571 34.4982C9.52035 32.8332 8.0384 30.5385 7.37497 27.8469C6.46167 24.1718 7.21988 20.7038 9.61512 17.5464C9.77021 17.3393 9.96838 17.2272 10.1665 17.2272C10.2786 17.2272 10.3819 17.2617 10.4767 17.3393C10.606 17.4342 10.6749 17.555 10.7007 17.693C10.7266 17.8656 10.6663 18.0467 10.5284 18.2279C9.40834 19.6772 8.69321 21.2473 8.38304 22.9037C7.75407 26.3285 8.56398 29.4083 10.7955 32.0568C12.648 34.2394 15.026 35.4989 17.8779 35.8009C18.2914 35.844 18.705 35.8612 19.1013 35.8612C21.7034 35.8612 24.0469 34.9813 26.0544 33.2387C28.4755 31.151 29.7421 28.4853 29.8368 25.3106C29.923 22.1618 28.8288 19.4443 26.5714 17.2444C24.4691 15.1912 21.9274 14.156 19.0152 14.156C18.7222 14.156 18.4293 14.1646 18.1277 14.1905C16.2839 14.3199 14.5435 14.9324 12.9409 16.0108C12.872 16.0539 12.803 16.1057 12.7341 16.1574C12.6049 16.2523 12.467 16.3472 12.3292 16.4249C12.2172 16.4939 12.1051 16.5198 12.0018 16.5198C11.8467 16.5198 11.7002 16.4421 11.571 16.2868C11.3814 16.0539 11.4245 15.7434 11.683 15.5104C11.7519 15.45 11.8122 15.4069 11.8811 15.3551C14.0007 13.8109 16.4734 13 19.0152 13C21.3673 13 23.6678 13.7074 25.6495 15.0532C29.07 17.3652 30.8708 20.6607 31 24.8361C30.9655 30.7196 26.8988 35.7577 21.3242 36.8016C20.566 36.931 19.7906 37 19.0152 37Z" fill="black"/>
<path d="M18.9695 34C16.558 33.9754 14.294 33.0815 12.6024 31.4824C10.9109 29.8833 9.99139 27.7593 10.0001 25.5041C10.0261 20.8133 14.0511 17 18.9782 17H19.0129C21.4331 17.0082 23.6972 17.9103 25.3974 19.534C27.0889 21.1495 28.0171 23.2899 27.9998 25.5615C27.9911 27.8003 27.0456 29.9161 25.3453 31.5152C23.6451 33.1143 21.4158 34 19.065 34C19.065 34 19.0042 34 18.9695 34ZM12.9407 26.2668C12.507 26.2668 12.0646 26.4062 11.6222 26.6768C11.3706 26.8408 11.3099 26.9884 11.3793 27.2754C12.2207 30.5885 15.439 32.9093 19.2038 32.9175H19.2124C19.2818 32.9093 19.3686 32.9011 19.464 32.8929C19.6982 32.8765 20.0192 32.8437 20.3228 32.8027C23.3242 32.3763 25.9699 30.0309 26.6118 27.2344C26.6465 27.0704 26.5424 26.8244 26.4036 26.7342C25.9699 26.4308 25.5188 26.275 25.0591 26.275C24.6687 26.275 24.2697 26.3898 23.8793 26.6112C23.2548 26.9638 22.6302 27.1442 22.023 27.1442C21.4158 27.1442 20.7999 26.9638 20.184 26.6194C19.7936 26.3898 19.3859 26.275 18.9869 26.275C18.5879 26.275 18.1975 26.3898 17.8072 26.6112C17.1913 26.9638 16.5754 27.1442 15.9682 27.1442C15.3609 27.1442 14.7364 26.9638 14.1205 26.6112C13.7301 26.3816 13.3398 26.2668 12.9407 26.2668ZM12.9754 25.1679C13.5393 25.1679 14.0858 25.3237 14.6062 25.6189C15.066 25.8895 15.5084 26.0207 15.9595 26.0207C16.4106 26.0207 16.8616 25.8895 17.3301 25.6189C17.8766 25.3073 18.4404 25.1515 18.9956 25.1515C19.5594 25.1515 20.1146 25.3073 20.6611 25.6189C21.1295 25.8895 21.5806 26.0207 22.0317 26.0207C22.4914 26.0207 22.9338 25.8895 23.3936 25.6107C23.888 25.3155 24.4258 25.1679 24.9897 25.1679C25.354 25.1679 25.727 25.2253 26.1087 25.3483C26.2562 25.3975 26.4036 25.4549 26.5945 25.5287L26.8547 25.6271L26.846 25.4959C26.6986 22.5847 25.38 20.4361 22.9165 19.0994C21.6153 18.3941 20.2794 18.0333 18.9609 18.0333C17.5035 18.0333 16.0636 18.4679 14.667 19.329C12.4289 20.7067 11.2405 22.7815 11.1278 25.4959L11.1191 25.6189L11.2405 25.5779C11.3793 25.5287 11.4574 25.4959 11.5355 25.4631C12.0386 25.2663 12.5157 25.1679 12.9754 25.1679Z" fill="black"/>
<path d="M27.0035 9C25.8013 9 24.5826 8.99043 23.3804 8.98086C22.5596 8.97129 22.0373 8.35885 22.0124 7.37321C21.9959 6.47368 21.9959 5.56459 22.0124 4.6555C22.0373 3.61244 22.5679 3.00957 23.4799 3C23.8779 3 24.2675 3 24.6655 3C25.0634 3 25.4531 3 25.8428 3C26.2325 3 26.6304 3 27.0201 3C27.4015 3 27.7828 3 28.1642 3C28.5456 3 28.9187 3 29.3 3C29.6814 3 30.0545 3 30.4359 3C31.4557 3 31.9946 3.62201 31.9946 4.78947C32.0028 5.73684 32.0028 6.55981 31.9863 7.31579C31.978 8.33971 31.4557 8.97129 30.6266 8.98086C29.4244 8.99043 28.2057 9 27.0035 9ZM28.8772 7.7177C29.4327 7.7177 29.8887 7.72727 30.3032 7.73684H30.3364C30.552 7.73684 30.6929 7.689 30.7841 7.57416C30.8753 7.45933 30.9168 7.28708 30.9085 7.00957C30.8836 6.36842 30.8919 5.7177 30.9002 5.09569V4.7799C30.9085 4.59809 30.8753 4.47368 30.8007 4.38756C30.7261 4.30144 30.61 4.25359 30.4442 4.25359C29.3083 4.25359 28.1476 4.26316 27.0118 4.26316C25.8759 4.26316 24.7152 4.26316 23.5794 4.25359C23.4053 4.25359 23.2892 4.30144 23.2146 4.38756C23.14 4.48325 23.0985 4.61722 23.1068 4.81818C23.1234 5.58373 23.1234 6.33014 23.1068 7.09569C23.0985 7.32536 23.14 7.47847 23.2229 7.58373C23.3141 7.68899 23.4467 7.73684 23.654 7.73684C24.1349 7.72727 24.6406 7.72727 25.3122 7.72727C25.5858 7.72727 25.8677 7.72727 26.1413 7.72727C26.4148 7.72727 26.6967 7.72727 26.9703 7.72727C27.2854 7.72727 27.6004 7.72727 27.9155 7.72727C28.2388 7.72727 28.5539 7.7177 28.8772 7.7177Z" fill="black"/>
<path d="M6.98558 9C5.32909 8.98083 3.99042 7.61981 4.00005 5.97125C4.00968 4.34185 5.35799 3.00958 6.99521 3H7.01447C8.66133 3 10 4.35144 10 6.00958C10 6.80511 9.69182 7.55271 9.1236 8.11821C8.55539 8.6837 7.81382 9 7.0241 9H6.98558ZM6.99521 4.27476C6.07066 4.27476 5.28094 5.05112 5.27131 5.98083C5.27131 6.9393 6.0514 7.72524 7.00484 7.72524C7.92939 7.72524 8.71911 6.94888 8.71911 6.02875C8.72874 5.55911 8.54576 5.11821 8.21831 4.78275C7.89087 4.45687 7.45749 4.27476 6.99521 4.27476Z" fill="black"/>
<path d="M14.4879 9C13.1075 8.99042 11.992 7.63898 12 5.98083C12.0081 4.36102 13.1477 3 14.4879 3H14.528C15.2021 3.00958 15.8361 3.33546 16.3016 3.92013C16.7671 4.49521 17.0078 5.2524 16.9998 6.04792C16.9838 7.67732 15.8682 9 14.512 9C14.5039 9 14.4879 9 14.4879 9ZM14.4959 4.27476C13.7094 4.27476 13.0754 5.05112 13.0754 6C13.0754 6.94888 13.6934 7.70607 14.4879 7.72524H14.52C15.3065 7.72524 15.9405 6.94888 15.9405 6C15.9405 5.07029 15.3065 4.29393 14.528 4.27476H14.4959Z" fill="black"/>
</svg>
