<svg width="36" height="48" viewBox="0 0 36 48" fill="none" xmlns="http://www.w3.org/2000/svg">
<path d="M31.5448 48C31.0817 48 30.6186 48 30.1483 47.9929C29.5285 47.9858 29.3646 47.829 29.3575 47.1949C29.3575 46.7318 29.3575 46.2615 29.3575 45.7699V45.0004H6.55801V45.6488C6.55801 46.1475 6.55801 46.6392 6.55801 47.1308C6.55801 47.8433 6.40839 47.9858 5.68166 47.9929C5.68166 47.9929 4.54169 47.9929 4.22107 47.9929C3.79358 47.9929 3.37321 47.9929 2.94572 47.9858C2.36149 47.9786 2.18337 47.8005 2.18337 47.2091C2.18337 46.7318 2.18337 46.2544 2.18337 45.7557V44.9719H1.25001C1.06477 44.9719 0.879522 44.9719 0.694276 44.9648C0.188413 44.9577 0.0245411 44.7938 0.00316659 44.2808C-0.00395824 44.2096 0.00316659 44.1455 0.00316659 44.0742V43.9816V36.7713C0.00316659 25.6993 0.00316746 14.2425 0.0174171 2.9853C0.0174171 2.57919 0.0672905 1.99495 0.295285 1.47484C0.672901 0.598486 1.41388 0.106872 2.48973 0.00712418C2.57523 -6.52404e-07 2.66785 0 2.74623 0C2.74623 0 12.9276 0 17.972 0C23.0164 0 28.0679 0 33.1194 0C34.5016 0 35.492 0.676858 35.8268 1.85958C35.9052 2.14457 35.9479 2.47944 35.9479 2.87131C35.9551 14.5774 35.9551 26.2906 35.9551 37.9967V44.0742C35.9551 44.8508 35.8411 44.9648 35.0716 44.9719H33.7677V45.8341C33.7677 46.2829 33.7677 46.7175 33.7677 47.1521C33.7677 47.8148 33.5967 47.9858 32.9626 47.9858C32.471 48 32.0079 48 31.5448 48ZM30.5117 46.86H32.5922V45.0147H30.5117V46.86ZM3.32334 46.8529H5.41804V45.0147H3.32334V46.8529ZM1.12889 43.8249H34.7795V10.0603H1.12889V43.8249ZM17.2239 1.13285C12.2935 1.13285 7.42724 1.13285 2.56098 1.13285C2.47548 1.13285 2.39711 1.1471 2.33299 1.16135C1.60625 1.30384 1.14314 1.81683 1.13601 2.48657C1.11464 3.98991 1.12177 5.52174 1.12177 6.99658C1.12177 7.53807 1.12177 8.07956 1.12177 8.62105C1.12177 8.68517 1.15739 8.73505 1.17876 8.77067C1.18589 8.77779 1.19301 8.78492 1.19301 8.79917L1.23576 8.87754H17.3735V1.13285H17.2239ZM18.542 8.87042H34.8151V6.4551C34.8151 5.308 34.8151 4.15378 34.8151 3.00668C34.8151 1.65296 34.2807 1.12572 32.9128 1.12572C28.3671 1.12572 23.8144 1.12572 19.2687 1.12572H18.5491V8.87042H18.542Z" fill="black"/>
<path d="M17.8522 38.7449C11.3686 38.7022 6.12471 33.387 6.16034 26.8963C6.19596 20.4198 11.4612 15.1475 17.9021 15.1475H17.9591C24.4854 15.1831 29.7792 20.4982 29.7578 27.0032C29.7364 33.4797 24.4355 38.7449 17.9306 38.7449H17.8522ZM18.0018 16.2661C15.102 16.2874 12.3874 17.4132 10.3782 19.4366C8.36191 21.4601 7.26469 24.1675 7.27894 27.0531C7.31456 32.8883 12.1024 37.6334 17.9591 37.6334H18.0089C20.8517 37.6192 23.5378 36.4792 25.5684 34.4201C27.5705 32.3896 28.6606 29.732 28.6321 26.9462C28.5751 21.0611 23.837 16.2732 18.0659 16.2732L18.0018 16.2661Z" fill="black"/>
<path d="M29.8339 7.33146C28.5729 7.32433 27.5469 6.28411 27.5469 5.02301C27.5469 3.71917 28.5729 2.70032 29.8696 2.70032C30.4966 2.70032 31.0879 2.94969 31.5225 3.39143C31.9571 3.83317 32.1994 4.4174 32.1923 5.03014C32.178 6.31973 31.1449 7.32433 29.8411 7.32433C29.8482 7.33146 29.8339 7.33146 29.8339 7.33146ZM29.8696 3.81179C29.1927 3.81179 28.6655 4.33903 28.6655 5.00876C28.6655 5.3365 28.7866 5.63575 29.0075 5.86374C29.2355 6.09174 29.5347 6.21286 29.8696 6.21286C30.2116 6.21286 30.5179 6.07749 30.7459 5.83524C30.9739 5.60012 31.095 5.30088 31.0808 4.98026C31.0665 4.33903 30.5251 3.81179 29.8838 3.80467L29.8696 3.81179Z" fill="black"/>
<path d="M23.4439 7.33146C22.1828 7.33146 21.1497 6.30548 21.1426 5.04439C21.1355 3.74054 22.1472 2.70744 23.4439 2.70032H23.4653C24.7407 2.70032 25.788 3.74054 25.788 5.01589C25.788 5.62862 25.5529 6.21286 25.1183 6.64747C24.6765 7.08921 24.0852 7.33858 23.4511 7.33858H23.4439V7.33146ZM23.4653 3.81179C22.7813 3.81179 22.2612 4.3319 22.2612 5.01589C22.2612 5.34363 22.3823 5.64287 22.6032 5.87087C22.8241 6.09174 23.1304 6.21998 23.4582 6.21998H23.4796C23.8073 6.21286 24.1137 6.08461 24.3417 5.84237C24.5625 5.60725 24.6837 5.30088 24.6765 4.98739C24.6552 4.34615 24.1137 3.81892 23.4653 3.81179Z" fill="black"/>
<path d="M6.39453 7.03221C5.76755 7.03221 5.14056 7.03221 4.50645 7.03221C3.87234 7.03221 3.70847 6.86834 3.70847 6.24848C3.70134 5.24388 3.70134 4.48152 3.70847 3.76191C3.71559 3.17055 3.88659 2.99956 4.47795 2.99956C6.06679 2.99956 7.65563 2.99243 9.24446 2.99243C10.8333 2.99243 12.4221 2.99243 14.011 2.99956C14.6166 2.99956 14.7662 3.14918 14.7733 3.76191C14.7805 4.75226 14.7805 5.55737 14.7733 6.29835C14.7662 6.88259 14.6166 7.03221 14.0466 7.03221C13.3199 7.03221 12.586 7.03934 11.8593 7.03934H9.23021L6.39453 7.03221ZM4.86269 5.87799H13.6405V4.14665H4.86269V5.87799Z" fill="black"/>
<path d="M17.9936 35.2536C13.3126 35.2394 9.64328 31.5701 9.6504 26.9033C9.6504 22.3577 13.3981 18.6528 17.9936 18.6456C20.1952 18.6456 22.2685 19.5077 23.8359 21.0752C25.4034 22.6427 26.2655 24.716 26.2655 26.9176C26.2655 31.5131 22.5677 35.2536 18.0221 35.2536H17.9936ZM17.9437 19.7571C13.9965 19.7571 10.7761 22.9775 10.769 26.9389C10.7619 28.8626 11.5029 30.6652 12.8566 32.0261C14.2174 33.3869 16.0414 34.1421 17.9865 34.1421C21.9336 34.1421 25.1469 30.9288 25.154 26.9817C25.1612 22.9348 21.9977 19.7642 17.958 19.7571H17.9437Z" fill="black"/>
<path d="M17.9728 30.6652C17.8873 30.6652 17.8018 30.6439 17.7163 30.594C17.3957 30.4301 17.3387 30.1309 17.5453 29.7034C17.9514 28.8555 17.9229 28.0219 17.4455 27.1384C16.8257 25.9913 16.8114 24.83 17.3957 23.69C17.474 23.5404 17.6237 23.4193 17.7377 23.3195C17.7662 23.291 17.7947 23.2697 17.8232 23.2483C18.101 23.2554 18.3362 23.3694 18.4501 23.5547C18.5285 23.6829 18.5356 23.8183 18.4644 23.9465C17.8303 25.172 18.1865 26.2122 18.6211 27.0743C19.1056 28.0362 19.0771 29.0764 18.5428 30.1665C18.4359 30.3945 18.2507 30.6652 17.9728 30.6652Z" fill="black"/>
<path d="M21.0153 30.6653C20.9298 30.6653 20.8443 30.6439 20.7517 30.6012C20.6092 30.5299 20.5095 30.4302 20.4667 30.3019C20.4169 30.1523 20.4382 29.9671 20.538 29.7747C20.9726 28.9055 20.9441 28.0434 20.4525 27.1243C19.8469 25.9985 19.8326 24.8372 20.4169 23.6758C20.5665 23.3766 20.766 23.2198 20.9868 23.2198C21.0652 23.2198 21.1507 23.2412 21.2291 23.2768C21.3645 23.341 21.4571 23.4407 21.4998 23.5618C21.5568 23.7257 21.5283 23.9323 21.4215 24.1532C21.0153 24.9726 21.0367 25.7848 21.4713 26.711C21.6566 27.0958 21.7777 27.509 21.9131 27.9436C21.9701 28.1289 22.0271 28.3141 22.0841 28.4993C22.0271 28.6846 21.9772 28.8698 21.9202 29.048C21.7991 29.4755 21.678 29.8816 21.5212 30.2663C21.4215 30.5228 21.2362 30.6653 21.0153 30.6653Z" fill="black"/>
<path d="M15.0579 30.651C14.78 30.6439 14.5449 30.5299 14.438 30.3518C14.3596 30.2235 14.3525 30.0811 14.4238 29.9386C14.9225 28.9625 14.8798 28.0148 14.2813 26.8606C13.7683 25.8631 13.7968 24.7944 14.3596 23.6758C14.5021 23.3908 14.6945 23.2412 14.9154 23.2412C14.9866 23.2412 15.065 23.2626 15.1434 23.2982C15.293 23.3695 15.3927 23.4692 15.4426 23.5975C15.4996 23.7542 15.4711 23.9466 15.3642 24.1603C14.9439 25.0082 14.9724 25.8489 15.4426 26.7253C16.0696 27.8866 16.0838 29.0693 15.4854 30.2235C15.407 30.366 15.2645 30.4872 15.1434 30.5798C15.1077 30.6083 15.0792 30.6297 15.0579 30.651Z" fill="black"/>
</svg>
